<svg xmlns="http://www.w3.org/2000/svg" width="15.847" height="15.127" viewBox="0 0 15.847 15.127">
  <path id="Path_477" data-name="Path 477" d="M227.1,162.5l0-.015Zm.042-.03h0Zm-1.34,4.124-.012-.009Zm-.638,5.515a.609.609,0,0,1-.968-.7l1.581-4.83-4.118-2.978a.609.609,0,0,1,.37-1.138l5.082.011,1.56-4.837a.609.609,0,0,1,1.2,0l1.56,4.837,5.082-.011a.609.609,0,0,1,.37,1.138l-4.118,2.978,1.581,4.83a.609.609,0,0,1-.968.7l-4.105-3Zm3.521-3.851a1.021,1.021,0,0,1,1.169,0l3.114,2.273-1.2-3.665a1.021,1.021,0,0,1,.361-1.111l3.124-2.26-3.856.008a1.021,1.021,0,0,1-.945-.687l-1.183-3.67-1.183,3.67a1.021,1.021,0,0,1-.946.687l-3.856-.008,3.124,2.26a1.021,1.021,0,0,1,.361,1.111l-1.2,3.665Z" transform="translate(-221.349 -157.138)" fill="#720f78"/>
</svg>
