<svg xmlns="http://www.w3.org/2000/svg" width="22.033" height="20" viewBox="0 0 22.033 20">
  <path id="Path_489" data-name="Path 489" d="M281.474,205.6h-1.029V198.87a.87.87,0,0,0-1.373-.687,17.4,17.4,0,0,1-10.707,3.638h-2.951a4.842,4.842,0,0,0-5.01,4.667,4.784,4.784,0,0,0,4.255,4.6l2.334,5.491a2.307,2.307,0,0,0,1.3,1.235,2.189,2.189,0,0,0,.961.206,3.106,3.106,0,0,0,1.1-.206,2.615,2.615,0,0,0,1.442-3.294l-1.373-3.226a17.639,17.639,0,0,1,8.648,3.363.779.779,0,0,0,.549.206.872.872,0,0,0,.412-.068.845.845,0,0,0,.481-.755v-6.726h1.029a.861.861,0,1,0-.069-1.716Zm-11.257,9.609a.852.852,0,0,1-.549,1.029.623.623,0,0,1-.687,0,.564.564,0,0,1-.343-.343l-2.059-4.736H268.5Zm8.58-2.814a19.444,19.444,0,0,0-9.609-2.883h-3.775a3.1,3.1,0,0,1-3.294-2.951,3.148,3.148,0,0,1,3.294-2.951h2.951a19.272,19.272,0,0,0,10.364-3.02v11.805Z" transform="translate(-260.403 -198.019)" fill="#fff"/>
</svg>
