<svg xmlns="http://www.w3.org/2000/svg" width="16.737" height="16" viewBox="0 0 16.737 16">
  <g id="Group_872" data-name="Group 872" transform="translate(597.107 -1144)">
    <path id="Path_236" data-name="Path 236" d="M201.941,206.769a2.243,2.243,0,1,1,0,4.486,2.287,2.287,0,0,1-2.076-1.339.524.524,0,0,0-.468-.3.5.5,0,0,0-.469.3,2.278,2.278,0,0,1-4.151,0,.524.524,0,0,0-.468-.3.5.5,0,0,0-.469.3,2.287,2.287,0,0,1-2.075,1.339,2.243,2.243,0,1,1,0-4.486Zm0-1H191.8a3.247,3.247,0,1,0,0,6.494,3.331,3.331,0,0,0,2.544-1.172,3.28,3.28,0,0,0,2.544,1.172,3.331,3.331,0,0,0,2.544-1.172,3.3,3.3,0,0,0,5.824-2.075,3.33,3.33,0,0,0-3.314-3.247Z" transform="translate(-785.625 943.457)" fill="#4ac300" fill-rule="evenodd"/>
    <path id="Path_237" data-name="Path 237" d="M232.832,345.381v2.176a.158.158,0,0,1-.167.167h-11.08a.158.158,0,0,1-.167-.167v-2.176a4.916,4.916,0,0,1-1-.268v2.444a1.186,1.186,0,0,0,1.172,1.171h11.08a1.186,1.186,0,0,0,1.171-1.171v-2.444A4.4,4.4,0,0,1,232.832,345.381Z" transform="translate(-815.881 811.272)" fill="#4ac300" fill-rule="evenodd"/>
    <path id="Path_238" data-name="Path 238" d="M346.6,172.015a.515.515,0,0,1-.5-.5v-1.707a.5.5,0,1,1,1,0v1.707A.493.493,0,0,1,346.6,172.015Z" transform="translate(-935.101 978.043)" fill="#4ac300" fill-rule="evenodd"/>
    <path id="Path_239" data-name="Path 239" d="M326.828,108.339a1.572,1.572,0,0,1-1.573-1.573,6.325,6.325,0,0,1,1.172-2.376.5.5,0,0,1,.8,0,5.863,5.863,0,0,1,1.172,2.376,1.593,1.593,0,0,1-1.573,1.573Zm0-2.778a3.757,3.757,0,0,0-.569,1.172.569.569,0,0,0,1.138,0A3.758,3.758,0,0,0,326.828,105.561Z" transform="translate(-915.333 1039.811)" fill="#4ac300" fill-rule="evenodd"/>
  </g>
</svg>
