<svg xmlns="http://www.w3.org/2000/svg" width="16.103" height="14.96" viewBox="0 0 16.103 14.96">
  <g id="Group_1600" data-name="Group 1600" transform="translate(-7379.7 -1960.75)">
    <path id="Path_72" data-name="Path 72" d="M119.984,63.84a.375.375,0,0,0-.375.375v.731h-1.255a1.873,1.873,0,0,0-1.873,1.873v6.818a1.873,1.873,0,0,0,1.873,1.873h5.02a4.533,4.533,0,1,0,6.912-5.376v-3.3a1.873,1.873,0,0,0-1.873-1.873h-1.255v-.749a.375.375,0,0,0-.749,0v.731h-6.05v-.731a.374.374,0,0,0-.375-.375Zm11.37,9.909a3.8,3.8,0,1,1-1.12-2.676,3.784,3.784,0,0,1,1.12,2.676Zm-4.926-8.054v.543a.375.375,0,0,0,.749,0v-.524h1.236a1.124,1.124,0,0,1,1.124,1.124v2.828a4.533,4.533,0,0,0-6.406,5.095h-4.776a1.124,1.124,0,0,1-1.124-1.124v-6.8a1.124,1.124,0,0,1,1.124-1.124h1.255v.543a.375.375,0,1,0,.749,0v-.543Z" transform="translate(7263.469 1897.16)" fill="#720f78" stroke="#720f78" stroke-width="0.5"/>
    <path id="Path_73" data-name="Path 73" d="M432.2,292.381h-1.367v-1.929a.375.375,0,1,0-.749,0v2.3a.375.375,0,0,0,.375.375H432.2a.375.375,0,1,0,0-.749Z" transform="translate(6960.36 1678.49)" fill="#720f78" stroke="#720f78" stroke-width="0.5"/>
  </g>
</svg>
