<svg xmlns="http://www.w3.org/2000/svg" width="17.114" height="17.114" viewBox="0 0 17.114 17.114">
  <path id="Path_369" data-name="Path 369" d="M207.357,128.8a8.557,8.557,0,1,0,8.557,8.557A8.567,8.567,0,0,0,207.357,128.8Zm0,1.268a7.289,7.289,0,1,1-7.289,7.289A7.28,7.28,0,0,1,207.357,130.068Zm0,1.9a.634.634,0,0,0-.634.634v4.754a.627.627,0,0,0,.317.545l3.565,2.06a.639.639,0,0,0,.871-.228.631.631,0,0,0-.238-.862l-3.249-1.882V132.6a.634.634,0,0,0-.634-.634Z" transform="translate(-198.8 -128.8)" fill="#720f78"/>
</svg>
