<svg id="Group_1154" data-name="Group 1154" xmlns="http://www.w3.org/2000/svg" width="27.86" height="27.767" viewBox="0 0 27.86 27.767">
  <path id="Path_283" data-name="Path 283" d="M194.537,131.551a1.393,1.393,0,1,0,1.393-1.393A1.368,1.368,0,0,0,194.537,131.551Zm1.857-2.322h-.929a.439.439,0,0,1-.464-.464v-8.358a.439.439,0,0,1,.464-.464h.929a.439.439,0,0,1,.464.464v8.358A.439.439,0,0,1,196.394,129.229ZM182,126.443a13.891,13.891,0,0,0,13.883,13.883H208a1.863,1.863,0,0,0,1.857-1.857V126.443a13.93,13.93,0,0,0-27.86,0Zm1.857,0a12.073,12.073,0,0,1,24.145,0v12.026H195.883A12.029,12.029,0,0,1,183.857,126.443Z" transform="translate(-182 -112.56)" fill="#720f78"/>
</svg>
