<svg xmlns="http://www.w3.org/2000/svg" width="10.235" height="10.235" viewBox="0 0 10.235 10.235">
  <g id="noun-copy-4651767" transform="translate(0.05 0.05)">
    <path id="Path_470" data-name="Path 470" d="M106.446,188.3h-3.734a1.6,1.6,0,0,0-1.6,1.6v3.734a1.6,1.6,0,0,0,1.6,1.6h3.734a1.6,1.6,0,0,0,1.6-1.6V189.9a1.6,1.6,0,0,0-1.6-1.6Zm.533,5.334a.534.534,0,0,1-.533.533h-3.734a.534.534,0,0,1-.533-.533V189.9a.534.534,0,0,1,.533-.533h3.734a.534.534,0,0,1,.533.533Z" transform="translate(-101.112 -185.099)" fill="#a3a3a3" stroke="#fff" stroke-width="0.1"/>
    <path id="Path_471" data-name="Path 471" d="M263.636,31.109H259.9a1.6,1.6,0,0,0-1.6,1.6v.533a.533.533,0,0,0,1.067,0v-.533a.534.534,0,0,1,.533-.533h3.734a.534.534,0,0,1,.533.533v3.734a.534.534,0,0,1-.533.533H263.1a.533.533,0,0,0,0,1.067h.533a1.6,1.6,0,0,0,1.6-1.6V32.709a1.6,1.6,0,0,0-1.6-1.6Z" transform="translate(-255.101 -31.109)" fill="#a3a3a3" stroke="#fff" stroke-width="0.1"/>
  </g>
</svg>
