<svg xmlns="http://www.w3.org/2000/svg" width="120" height="120" viewBox="0 0 120 120">
  <g id="Group_1245" data-name="Group 1245" transform="translate(-5472 -40)">
    <path id="Path_210" data-name="Path 210" d="M130,0a60,60,0,1,0,60,60A60.071,60.071,0,0,0,130,0ZM106.658,109.1v-4.169a23.342,23.342,0,1,1,46.684,0V109.1a54.234,54.234,0,0,1-46.684,0Zm52.307-3.12v-1.049a28.965,28.965,0,0,0-57.93,0v1.049a54.379,54.379,0,1,1,57.93,0ZM130,35.027a17.021,17.021,0,1,0,17.027,17.015A17.041,17.041,0,0,0,130,35.027Zm0,28.421a11.394,11.394,0,1,1,11.394-11.394A11.4,11.4,0,0,1,130,63.448Z" transform="translate(5402 40)" fill="#dfcfe0"/>
  </g>
</svg>
