<svg xmlns="http://www.w3.org/2000/svg" width="8.509" height="9.847" viewBox="0 0 8.509 9.847">
  <g id="Group_2998" data-name="Group 2998" transform="translate(-1658.295 -917.257)">
    <path id="Path_503" data-name="Path 503" d="M147.76,36.687h-1.687v-.675A1.012,1.012,0,0,0,145.061,35h-2.024a1.012,1.012,0,0,0-1.012,1.012v.675h-1.687a.337.337,0,0,0,0,.675h.337v6.073a1.012,1.012,0,0,0,1.012,1.012h4.724a1.012,1.012,0,0,0,1.012-1.012V37.362h.337a.337.337,0,1,0,0-.675Zm-5.061-.675a.337.337,0,0,1,.337-.337h2.024a.337.337,0,0,1,.337.337v.675h-2.7Zm4.049,7.423a.337.337,0,0,1-.337.337h-4.724a.337.337,0,0,1-.337-.337V37.362h5.4Z" transform="translate(1518.5 882.457)" fill="#fff" stroke="#fff" stroke-width="0.4"/>
    <path id="Path_504" data-name="Path 504" d="M385.337,227.5a.337.337,0,0,0-.337.337v3.037a.337.337,0,1,0,.675,0v-3.037a.337.337,0,0,0-.337-.337Z" transform="translate(1278.224 693.668)" fill="#fff" stroke="#fff" stroke-width="0.4"/>
    <path id="Path_505" data-name="Path 505" d="M280.337,227.5a.337.337,0,0,0-.337.337v3.037a.337.337,0,1,0,.675,0v-3.037a.337.337,0,0,0-.337-.337Z" transform="translate(1381.199 693.668)" fill="#fff" stroke="#fff" stroke-width="0.4"/>
  </g>
</svg>
