<svg id="Component_747_1" data-name="Component 747 – 1" xmlns="http://www.w3.org/2000/svg" width="20" height="20" viewBox="0 0 20 20">
  <g id="Path_393" data-name="Path 393" transform="translate(20 20) rotate(180)" fill="#fff">
    <path d="M 10 19.5 C 4.761680126190186 19.5 0.5 15.23832035064697 0.5 10 C 0.5 4.761680126190186 4.761680126190186 0.5 10 0.5 C 15.23832035064697 0.5 19.5 4.761680126190186 19.5 10 C 19.5 15.23832035064697 15.23832035064697 19.5 10 19.5 Z" stroke="none"/>
    <path d="M 10 1 C 5.037380218505859 1 1 5.037380218505859 1 10 C 1 14.96261978149414 5.037380218505859 19 10 19 C 14.96261978149414 19 19 14.96261978149414 19 10 C 19 5.037380218505859 14.96261978149414 1 10 1 M 10 0 C 15.52285003662109 0 20 4.477149963378906 20 10 C 20 15.52285003662109 15.52285003662109 20 10 20 C 4.477149963378906 20 0 15.52285003662109 0 10 C 0 4.477149963378906 4.477149963378906 0 10 0 Z" stroke="none" fill="#a3a3a3"/>
  </g>
  <g id="Group_2998" data-name="Group 2998" transform="translate(-1652.5 -912.457)">
    <path id="Path_503" data-name="Path 503" d="M147.76,36.687h-1.687v-.675A1.012,1.012,0,0,0,145.061,35h-2.024a1.012,1.012,0,0,0-1.012,1.012v.675h-1.687a.337.337,0,0,0,0,.675h.337v6.073a1.012,1.012,0,0,0,1.012,1.012h4.724a1.012,1.012,0,0,0,1.012-1.012V37.362h.337a.337.337,0,1,0,0-.675Zm-5.061-.675a.337.337,0,0,1,.337-.337h2.024a.337.337,0,0,1,.337.337v.675h-2.7Zm4.049,7.423a.337.337,0,0,1-.337.337h-4.724a.337.337,0,0,1-.337-.337V37.362h5.4Z" transform="translate(1518.5 882.457)" fill="#a2a2a2" stroke="#a3a3a3" stroke-width="0.4"/>
    <path id="Path_504" data-name="Path 504" d="M385.337,227.5a.337.337,0,0,0-.337.337v3.037a.337.337,0,1,0,.675,0v-3.037a.337.337,0,0,0-.337-.337Z" transform="translate(1278.224 693.668)" fill="#a2a2a2" stroke="#a3a3a3" stroke-width="0.4"/>
    <path id="Path_505" data-name="Path 505" d="M280.337,227.5a.337.337,0,0,0-.337.337v3.037a.337.337,0,1,0,.675,0v-3.037a.337.337,0,0,0-.337-.337Z" transform="translate(1381.199 693.668)" fill="#a2a2a2" stroke="#a3a3a3" stroke-width="0.4"/>
  </g>
</svg>
