<svg xmlns="http://www.w3.org/2000/svg" width="12.88" height="14.943" viewBox="0 0 12.88 14.943">
  <g id="noun-delete-4924558" transform="translate(0.207 0.2)">
    <path id="Path_503" data-name="Path 503" d="M151.946,37.6h-2.6V36.558A1.558,1.558,0,0,0,147.791,35h-3.116a1.558,1.558,0,0,0-1.558,1.558V37.6h-2.6a.519.519,0,1,0,0,1.039h.519v9.349a1.558,1.558,0,0,0,1.558,1.558h7.271a1.558,1.558,0,0,0,1.558-1.558V38.636h.519a.519.519,0,1,0,0-1.039Zm-7.791-1.039a.519.519,0,0,1,.519-.519h3.116a.519.519,0,0,1,.519.519V37.6h-4.155Zm6.233,11.427a.519.519,0,0,1-.519.519H142.6a.519.519,0,0,1-.519-.519V38.636h8.31Z" transform="translate(-140 -35)" fill="#a2a2a2" stroke="#a3a3a3" stroke-width="0.4"/>
    <path id="Path_504" data-name="Path 504" d="M385.519,227.5a.519.519,0,0,0-.519.519v4.675a.519.519,0,1,0,1.039,0v-4.675a.519.519,0,0,0-.519-.519Z" transform="translate(-377.729 -221.787)" fill="#a2a2a2" stroke="#a3a3a3" stroke-width="0.4"/>
    <path id="Path_505" data-name="Path 505" d="M280.519,227.5a.519.519,0,0,0-.519.519v4.675a.519.519,0,1,0,1.039,0v-4.675a.519.519,0,0,0-.519-.519Z" transform="translate(-275.845 -221.787)" fill="#a2a2a2" stroke="#a3a3a3" stroke-width="0.4"/>
  </g>
</svg>
