<svg xmlns="http://www.w3.org/2000/svg" width="14.95" height="20.6" viewBox="0 0 14.95 20.6">
  <g id="Group_1618" data-name="Group 1618" transform="translate(10442.192 -10284.7)">
    <path id="Path_364" data-name="Path 364" d="M236.837,118.263h.475a.586.586,0,0,1,.486,1.011l-3.012,3.765a.8.8,0,0,1-1.288,0l-3.012-3.765a.586.586,0,0,1,.486-1.011h.475a.317.317,0,0,0,.317-.318v-6.656a.951.951,0,0,1,.952-.952h2.852a.951.951,0,0,1,.952.952v6.656A.316.316,0,0,0,236.837,118.263Zm0,.634a.95.95,0,0,1-.952-.952v-6.656a.317.317,0,0,0-.318-.318h-2.852a.316.316,0,0,0-.318.318v6.656a.952.952,0,0,1-.952.952H231l3,3.745a.172.172,0,0,0,.3,0l3-3.745ZM224.79,108.461h-.475a.586.586,0,0,1-.486-1.011l3.012-3.765a.8.8,0,0,1,1.288,0l3.011,3.765a.586.586,0,0,1-.486,1.011h-.475a.318.318,0,0,0-.317.318v6.656a.951.951,0,0,1-.952.952h-2.852a.951.951,0,0,1-.952-.952V108.78a.316.316,0,0,0-.318-.318Zm0-.634a.95.95,0,0,1,.952.952v6.656a.317.317,0,0,0,.318.318h2.852a.317.317,0,0,0,.318-.318V108.78a.952.952,0,0,1,.951-.952h.45l-3-3.745a.172.172,0,0,0-.3,0l-3,3.745Z" transform="translate(-10665.531 10181.638)" fill="#720f78" stroke="#720f78" stroke-width="0.6"/>
  </g>
</svg>
