<svg xmlns="http://www.w3.org/2000/svg" width="16.704" height="15.202" viewBox="0 0 16.704 15.202">
  <g id="Group_1631" data-name="Group 1631" transform="translate(0.15 0.15)">
    <path id="Path_15" data-name="Path 15" d="M110.528,291.593h12.64a1.885,1.885,0,0,0,1.882-1.894v-5.855a.475.475,0,1,0-.95,0V289.7a.924.924,0,0,1-.931.927h-12.64a.937.937,0,0,1-.931-.927v-5.855a.475.475,0,1,0-.95,0V289.7a1.885,1.885,0,0,0,1.882,1.894Z" transform="translate(-108.647 -276.691)" fill="#720f78" stroke="#720f78" stroke-width="0.3"/>
    <path id="Path_16" data-name="Path 16" d="M233.54,82.878a.474.474,0,0,0-.483.474V94.118l-2.705-2.275a.476.476,0,0,0-.676.057.455.455,0,0,0,.058.663l3.517,2.957.019.019c.019,0,.019.019.039.019a.068.068,0,0,1,.039.019c.019,0,.019.019.039.019s.039.019.058.019h.271c.019,0,.039-.019.058-.019s.019-.019.039-.019a.068.068,0,0,0,.039-.019c.019,0,.019-.019.039-.019l.019-.019,3.517-2.957a.471.471,0,0,0,.058-.663.494.494,0,0,0-.676-.057L234.1,94.118V83.333a.613.613,0,0,0-.56-.455Z" transform="translate(-225.518 -82.878)" fill="#720f78" stroke="#720f78" stroke-width="0.3"/>
  </g>
</svg>
