<svg id="Component_746_1" data-name="Component 746 – 1" xmlns="http://www.w3.org/2000/svg" width="20" height="20" viewBox="0 0 20 20">
  <g id="Path_393" data-name="Path 393" transform="translate(20 20) rotate(180)" fill="#fff">
    <path d="M 10 19.5 C 4.761680126190186 19.5 0.5 15.23832035064697 0.5 10 C 0.5 4.761680126190186 4.761680126190186 0.5 10 0.5 C 15.23832035064697 0.5 19.5 4.761680126190186 19.5 10 C 19.5 15.23832035064697 15.23832035064697 19.5 10 19.5 Z" stroke="none"/>
    <path d="M 10 1 C 5.037380218505859 1 1 5.037380218505859 1 10 C 1 14.96261978149414 5.037380218505859 19 10 19 C 14.96261978149414 19 19 14.96261978149414 19 10 C 19 5.037380218505859 14.96261978149414 1 10 1 M 10 0 C 15.52285003662109 0 20 4.477149963378906 20 10 C 20 15.52285003662109 15.52285003662109 20 10 20 C 4.477149963378906 20 0 15.52285003662109 0 10 C 0 4.477149963378906 4.477149963378906 0 10 0 Z" stroke="none" fill="#a3a3a3"/>
  </g>
  <path id="Path_502" data-name="Path 502" d="M148.116,73.87,143.394,78.6a.215.215,0,0,0-.061.122l-.315,2.208a.323.323,0,0,0,.322.369h.041l2.246-.279a.215.215,0,0,0,.126-.061l4.717-4.729a1.665,1.665,0,1,0-2.353-2.356ZM145.5,80.6l-2.033.252.285-2L147.9,74.7l1.746,1.747Zm5.035-5.548a1.229,1.229,0,0,1-.362.874l-.215.215L148.2,74.391l.215-.215a1.235,1.235,0,0,1,2.113.871Z" transform="translate(-136.516 -66.87)" fill="#a3a3a3" stroke="#a3a3a3" stroke-width="0.6"/>
</svg>
