<svg xmlns="http://www.w3.org/2000/svg" width="15.198" height="15.143" viewBox="0 0 15.198 15.143">
  <g id="Component_392_5" data-name="Component 392 – 5" transform="translate(0.301 0.3)">
    <path id="Path_204" data-name="Path 204" d="M152.377,74.287l-8.665,8.674a.394.394,0,0,0-.112.223l-.578,4.052a.592.592,0,0,0,.591.677h.075l4.121-.511a.394.394,0,0,0,.231-.112l8.655-8.678a3.056,3.056,0,1,0-4.318-4.324ZM147.57,86.63l-3.73.462.522-3.667,7.616-7.622,3.2,3.205Zm9.239-10.182a2.255,2.255,0,0,1-.664,1.6l-.394.395-3.214-3.2.394-.395a2.265,2.265,0,0,1,3.878,1.6Z" transform="translate(-143.015 -73.37)" fill="#fff" stroke="#fff" stroke-width="0.6"/>
  </g>
</svg>
