<svg xmlns="http://www.w3.org/2000/svg" width="8.555" height="8.525" viewBox="0 0 8.555 8.525">
  <path id="Path_502" data-name="Path 502" d="M148.116,73.87,143.394,78.6a.215.215,0,0,0-.061.122l-.315,2.208a.323.323,0,0,0,.322.369h.041l2.246-.279a.215.215,0,0,0,.126-.061l4.717-4.729a1.665,1.665,0,1,0-2.353-2.356ZM145.5,80.6l-2.033.252.285-2L147.9,74.7l1.746,1.747Zm5.035-5.548a1.229,1.229,0,0,1-.362.874l-.215.215L148.2,74.391l.215-.215a1.235,1.235,0,0,1,2.113.871Z" transform="translate(-142.714 -73.07)" fill="#fff" stroke="#fff" stroke-width="0.6"/>
</svg>
