<svg xmlns="http://www.w3.org/2000/svg" width="37.197" height="30.8" viewBox="0 0 37.197 30.8">
  <path id="Path_441" data-name="Path 441" d="M11.531,6.129H31.316A8.388,8.388,0,0,1,29.864,3.6c-.538-1.237-1.021-2.365-2.419-2.365H14.273a2.556,2.556,0,0,0-1.935.807,2.556,2.556,0,0,0-.807,1.935V6.129Zm22.043,0h9.14a4.164,4.164,0,0,1,2.85,1.183,3.987,3.987,0,0,1,1.129,2.8V26.022A3.861,3.861,0,0,1,42.714,30H14.274a3.987,3.987,0,0,1-2.8-1.129,3.936,3.936,0,0,1-1.183-2.85V3.979a3.815,3.815,0,0,1,1.183-2.8A3.814,3.814,0,0,1,14.274,0H27.446c2.2,0,2.85,1.505,3.548,3.172.538,1.183,1.129,2.527,2.581,2.957Zm9.14,1.237H11.531V26.021a2.754,2.754,0,0,0,2.742,2.742h28.44a2.754,2.754,0,0,0,2.8-2.742V10.107A2.766,2.766,0,0,0,44.7,8.172a3,3,0,0,0-1.989-.807Z" transform="translate(-9.895 0.4)" fill="#a3a3a3" stroke="#a3a3a3" stroke-width="0.8"/>
</svg>
