<svg xmlns="http://www.w3.org/2000/svg" width="17.253" height="15.15" viewBox="0 0 17.253 15.15">
  <g id="Group_7" data-name="Group 7" transform="translate(0)">
    <path id="Path_17" data-name="Path 17" d="M169.582,114.181h-9.348a.633.633,0,0,0,0,1.267h9.348a2.265,2.265,0,0,0,2.179,1.621,2.235,2.235,0,0,0,2.153-1.621h2.305a.633.633,0,0,0,0-1.267h-2.305a2.258,2.258,0,0,0-4.332,0Zm3.141.633a.988.988,0,1,1-.988-.988A1.006,1.006,0,0,1,172.723,114.815Z" transform="translate(-159.6 -112.56)" fill="#720f78"/>
    <path id="Path_18" data-name="Path 18" d="M161.98,226.181h-1.748a.633.633,0,1,0,0,1.267h1.748a2.265,2.265,0,0,0,2.179,1.621,2.235,2.235,0,0,0,2.153-1.621h9.906a.633.633,0,1,0,0-1.267h-9.906a2.258,2.258,0,0,0-4.332,0Zm3.141.633a.988.988,0,1,1-.988-.988A.989.989,0,0,1,165.122,226.815Z" transform="translate(-159.599 -219.493)" fill="#720f78"/>
    <path id="Path_19" data-name="Path 19" d="M166.542,349.381h-6.308a.633.633,0,1,0,0,1.267h6.308a2.265,2.265,0,0,0,2.179,1.621,2.235,2.235,0,0,0,2.153-1.621h5.345a.633.633,0,1,0,0-1.267h-5.345a2.258,2.258,0,0,0-4.332,0Zm3.141.633a.988.988,0,1,1-.988-.988A.989.989,0,0,1,169.683,350.015Z" transform="translate(-159.6 -337.12)" fill="#720f78"/>
  </g>
</svg>
