<svg id="help" xmlns="http://www.w3.org/2000/svg" width="45" height="45" viewBox="0 0 45 45">
  <g id="Path_48" data-name="Path 48" fill="none">
    <path d="M22.5,0A22.5,22.5,0,1,1,0,22.5,22.5,22.5,0,0,1,22.5,0Z" stroke="none"/>
    <path d="M 22.5 1 C 19.59708023071289 1 16.78152084350586 1.568321228027344 14.13154029846191 2.689170837402344 C 11.57144927978516 3.771991729736328 9.272048950195312 5.322360992431641 7.297199249267578 7.297199249267578 C 5.322360992431641 9.272048950195312 3.771991729736328 11.57144927978516 2.689170837402344 14.13154029846191 C 1.568321228027344 16.78152084350586 1 19.59708023071289 1 22.5 C 1 25.40291976928711 1.568321228027344 28.21847915649414 2.689170837402344 30.86845970153809 C 3.771991729736328 33.42855072021484 5.322360992431641 35.72795104980469 7.297199249267578 37.70280075073242 C 9.272048950195312 39.67763900756836 11.57144927978516 41.22800827026367 14.13154029846191 42.31082916259766 C 16.78152084350586 43.43167877197266 19.59708023071289 44 22.5 44 C 25.40291976928711 44 28.21847915649414 43.43167877197266 30.86845970153809 42.31082916259766 C 33.42855072021484 41.22800827026367 35.72795104980469 39.67763900756836 37.70280075073242 37.70280075073242 C 39.67763900756836 35.72795104980469 41.22800827026367 33.42855072021484 42.31082916259766 30.86845970153809 C 43.43167877197266 28.21847915649414 44 25.40291976928711 44 22.5 C 44 19.59708023071289 43.43167877197266 16.78152084350586 42.31082916259766 14.13154029846191 C 41.22800827026367 11.57144927978516 39.67763900756836 9.272048950195312 37.70280075073242 7.297199249267578 C 35.72795104980469 5.322360992431641 33.42855072021484 3.771991729736328 30.86845970153809 2.689170837402344 C 28.21847915649414 1.568321228027344 25.40291976928711 1 22.5 1 M 22.5 0 C 34.92641067504883 0 45 10.07358932495117 45 22.5 C 45 34.92641067504883 34.92641067504883 45 22.5 45 C 10.07358932495117 45 0 34.92641067504883 0 22.5 C 0 10.07358932495117 10.07358932495117 0 22.5 0 Z" stroke="none" fill="#720f78"/>
  </g>
  <g id="Group_37" data-name="Group 37" transform="translate(17 12)">
    <path id="Path_30" data-name="Path 30" d="M264.867,128.861a5.794,5.794,0,0,0-2.374-11.027,5.678,5.678,0,0,0-4.1,1.668,5.84,5.84,0,0,0-1.727,4.135.72.72,0,1,0,1.439,0,4.354,4.354,0,0,1,1.295-3.119,4.21,4.21,0,0,1,3.094-1.233,4.356,4.356,0,0,1,1.8,8.27,4.441,4.441,0,0,0-2.59,3.99V133a.72.72,0,1,0,1.439,0v-1.451A2.929,2.929,0,0,1,264.867,128.861Z" transform="translate(-256.666 -117.834)" fill="#720f78"/>
    <path id="Path_31" data-name="Path 31" d="M334.591,408.216a1.046,1.046,0,1,1-1.046-1.046,1.046,1.046,0,0,1,1.046,1.046" transform="translate(-327.79 -389.261)" fill="#720f78"/>
  </g>
</svg>
