<svg id="help" xmlns="http://www.w3.org/2000/svg" width="45" height="45" viewBox="0 0 45 45">
  <path id="Path_45" data-name="Path 45" d="M22.5,0A22.5,22.5,0,1,1,0,22.5,22.5,22.5,0,0,1,22.5,0Z" fill="#720f78"/>
  <g id="Group_37" data-name="Group 37" transform="translate(-6802.76 192)">
    <path id="Path_30" data-name="Path 30" d="M264.867,128.861a5.794,5.794,0,0,0-2.374-11.027,5.678,5.678,0,0,0-4.1,1.668,5.84,5.84,0,0,0-1.727,4.135.72.72,0,1,0,1.439,0,4.354,4.354,0,0,1,1.295-3.119,4.21,4.21,0,0,1,3.094-1.233,4.356,4.356,0,0,1,1.8,8.27,4.441,4.441,0,0,0-2.59,3.99V133a.72.72,0,1,0,1.439,0v-1.451A2.929,2.929,0,0,1,264.867,128.861Z" transform="translate(6563.094 -297.834)" fill="#fff"/>
    <path id="Path_31" data-name="Path 31" d="M334.591,408.216a1.046,1.046,0,1,1-1.046-1.046,1.046,1.046,0,0,1,1.046,1.046" transform="translate(6491.97 -569.261)" fill="#fff"/>
  </g>
</svg>
