<svg xmlns="http://www.w3.org/2000/svg" width="35.57" height="29.458" viewBox="0 0 35.57 29.458">
  <path id="Path_441" data-name="Path 441" d="M11.476,5.855h18.9a8.012,8.012,0,0,1-1.387-2.414c-.514-1.181-.976-2.26-2.311-2.26H14.1a2.441,2.441,0,0,0-1.849.77,2.442,2.442,0,0,0-.77,1.849V5.855Zm21.057,0h8.731a3.978,3.978,0,0,1,2.722,1.13,3.808,3.808,0,0,1,1.078,2.671v15.2a3.688,3.688,0,0,1-3.8,3.8H14.1a3.809,3.809,0,0,1-2.671-1.078,3.76,3.76,0,0,1-1.13-2.722V3.8a3.644,3.644,0,0,1,1.13-2.671A3.643,3.643,0,0,1,14.1,0H26.678c2.106,0,2.722,1.438,3.39,3.03.514,1.13,1.078,2.414,2.465,2.825Zm8.731,1.181H11.476V24.857A2.631,2.631,0,0,0,14.1,27.477H41.264a2.631,2.631,0,0,0,2.671-2.619V9.655a2.643,2.643,0,0,0-.77-1.849,2.867,2.867,0,0,0-1.9-.77Z" transform="translate(-9.895 0.4)" fill="#152449" stroke="#152449" stroke-width="0.8"/>
</svg>
