<svg xmlns="http://www.w3.org/2000/svg" xmlns:xlink="http://www.w3.org/1999/xlink" width="18.053" height="25.385" viewBox="0 0 18.053 25.385">
  <defs>
    <clipPath id="clip-path">
      <rect id="Rectangle_2165" data-name="Rectangle 2165" width="18.053" height="25.385" transform="translate(-2 -2)" fill="#720f78" stroke="#720f78" stroke-width="0.5"/>
    </clipPath>
  </defs>
  <g id="Group_1263" data-name="Group 1263" transform="translate(2 2)">
    <g id="Group_1262" data-name="Group 1262" clip-path="url(#clip-path)">
      <path id="Path_323" data-name="Path 323" d="M128.8,0h0Z" transform="translate(-121.773)" fill="#720f78" stroke="#720f78" stroke-width="0.5"/>
      <path id="Path_324" data-name="Path 324" d="M66.9,149.83a2.444,2.444,0,1,0-3.341,0,6.3,6.3,0,0,0-2,3.981.305.305,0,0,0,.305.344h6.721a.305.305,0,0,0,.305-.344,6.3,6.3,0,0,0-2-3.981m-3.5-1.785a1.833,1.833,0,1,1,1.833,1.833,1.828,1.828,0,0,1-1.833-1.833m-1.145,5.5A5.67,5.67,0,0,1,64.08,150.2a2.434,2.434,0,0,0,2.291,0,5.67,5.67,0,0,1,1.833,3.341Z" transform="translate(-58.2 -137.658)" fill="#720f78" stroke="#720f78" stroke-width="0.6"/>
      <path id="Path_325" data-name="Path 325" d="M128.8,145.6h0Z" transform="translate(-121.772 -137.658)" fill="#720f78" stroke="#720f78" stroke-width="0.5"/>
      <path id="Path_326" data-name="Path 326" d="M12.525,3.055H9.165V2.138a2.138,2.138,0,1,0-4.277,0v.917H1.527A1.531,1.531,0,0,0,0,4.582V19.857a1.531,1.531,0,0,0,1.527,1.527h11a1.531,1.531,0,0,0,1.527-1.527V4.582a1.531,1.531,0,0,0-1.527-1.527M5.5,2.138a1.527,1.527,0,1,1,3.055,0V4.582a1.527,1.527,0,1,1-3.055,0Zm7.943,17.719a.908.908,0,0,1-.917.917h-11a.908.908,0,0,1-.917-.917V4.582a.908.908,0,0,1,.917-.917h3.36v.917a2.138,2.138,0,1,0,4.277,0V3.666h3.361a.908.908,0,0,1,.917.917Z" fill="#720f78" stroke="#720f78" stroke-width="0.6"/>
    </g>
  </g>
</svg>
