<svg xmlns="http://www.w3.org/2000/svg" width="20.123" height="18.671" viewBox="0 0 20.123 18.671">
  <g id="Group_213" data-name="Group 213" transform="translate(-7379.8 -1960.85)">
    <path id="Path_72" data-name="Path 72" d="M120.931,63.84a.476.476,0,0,0-.476.476v.928h-1.594a2.38,2.38,0,0,0-2.38,2.38v8.662a2.38,2.38,0,0,0,2.38,2.38h6.378a5.759,5.759,0,1,0,8.781-6.83V67.648a2.38,2.38,0,0,0-2.38-2.38h-1.594v-.952a.476.476,0,0,0-.952,0v.928h-7.687v-.928a.476.476,0,0,0-.476-.476Zm14.445,12.589a4.831,4.831,0,1,1-1.423-3.4,4.807,4.807,0,0,1,1.423,3.4ZM129.117,66.2v.69a.476.476,0,1,0,.952,0V66.22h1.571a1.428,1.428,0,0,1,1.428,1.428v3.593a5.759,5.759,0,0,0-8.139,6.473h-6.068a1.428,1.428,0,0,1-1.428-1.428V67.648a1.428,1.428,0,0,1,1.428-1.428h1.594v.69a.476.476,0,1,0,.952,0v-.69Z" transform="translate(7263.469 1897.16)" fill="#a3a3a3" stroke="#a3a3a3" stroke-width="0.3"/>
    <path id="Path_73" data-name="Path 73" d="M432.768,293h-1.737v-2.451a.476.476,0,1,0-.952,0v2.927a.476.476,0,0,0,.476.476h2.213a.476.476,0,0,0,0-.952Z" transform="translate(6963.197 1680.537)" fill="#a3a3a3" stroke="#a3a3a3" stroke-width="0.3"/>
  </g>
</svg>
