<svg xmlns="http://www.w3.org/2000/svg" width="15.41" height="18.742" viewBox="0 0 15.41 18.742">
  <g id="Group_1018" data-name="Group 1018" transform="translate(-4241.102 1193)">
    <path id="Path_207" data-name="Path 207" d="M150.505,28a5.649,5.649,0,0,0-5.623,5.675v2.239h-.657a1.432,1.432,0,0,0-1.425,1.419v7.985a1.438,1.438,0,0,0,1.425,1.425h12.56a1.438,1.438,0,0,0,1.425-1.425V37.332a1.432,1.432,0,0,0-1.425-1.419h-.657V33.675A5.649,5.649,0,0,0,150.505,28Zm0,1.25a4.375,4.375,0,0,1,4.373,4.425v2.239h-8.746V33.675A4.375,4.375,0,0,1,150.505,29.25Zm-6.28,7.913h12.56a.16.16,0,0,1,.176.169v7.985a.164.164,0,0,1-.176.176h-12.56a.164.164,0,0,1-.176-.176V37.332A.16.16,0,0,1,144.225,37.163Zm6.28,1.666a1.872,1.872,0,0,0-.625,3.638v1.152a.625.625,0,1,0,1.25,0V42.467a1.872,1.872,0,0,0-.625-3.638Zm0,1.25a.625.625,0,1,1-.625.625A.616.616,0,0,1,150.505,40.078Z" transform="translate(4098.302 -1221)" fill="#fff"/>
  </g>
</svg>
