<svg xmlns="http://www.w3.org/2000/svg" width="10.114" height="10.102" viewBox="0 0 10.114 10.102">
  <path id="Path_474" data-name="Path 474" d="M187.44,111.076a.5.5,0,0,0-.223-.416l-4.566-3.08a.511.511,0,0,0-.567,0l-4.536,3.08a.505.505,0,0,0,0,.836l2.171,1.463,2.394,1.617a.5.5,0,0,0,.285.085.517.517,0,0,0,.282-.085l2.086-1.417,1.266.856-3.65,2.466-3.65-2.47.426-.289a.511.511,0,1,0-.567-.849l-1.043.722a.505.505,0,0,0,0,.836l4.565,3.08h0a.515.515,0,0,0,.567,0l4.536-3.08h0a.505.505,0,0,0,0-.836l-1.555-1.049,1.551-1.053a.5.5,0,0,0,.226-.416Zm-2.952,1.049-2.105,1.42-2.1-1.423-1.551-1.046,3.65-2.466,3.664,2.47Z" transform="translate(-177.327 -107.493)" fill="#fff"/>
</svg>
