<svg xmlns="http://www.w3.org/2000/svg" width="14.895" height="14.922" viewBox="0 0 14.895 14.922">
  <path id="Icon_feather-phone" data-name="Icon feather-phone" d="M16.762,13.2v2.05a1.367,1.367,0,0,1-1.49,1.367,13.527,13.527,0,0,1-5.9-2.1,13.328,13.328,0,0,1-4.1-4.1,13.526,13.526,0,0,1-2.1-5.926A1.367,1.367,0,0,1,4.534,3H6.584A1.367,1.367,0,0,1,7.951,4.176,8.776,8.776,0,0,0,8.43,6.1a1.367,1.367,0,0,1-.308,1.442l-.868.868a10.936,10.936,0,0,0,4.1,4.1l.868-.868a1.367,1.367,0,0,1,1.442-.308,8.776,8.776,0,0,0,1.921.478A1.367,1.367,0,0,1,16.762,13.2Z" transform="translate(-2.517 -2.35)" fill="none" stroke="#fff" stroke-linecap="round" stroke-linejoin="round" stroke-width="1.3"/>
</svg>
