<svg xmlns="http://www.w3.org/2000/svg" width="19.007" height="19.004" viewBox="0 0 19.007 19.004">
  <g id="noun-play-765172" transform="translate(-140.8 -70.838)">
    <path id="Path_51" data-name="Path 51" d="M150.3,71.088a9.252,9.252,0,1,0,9.253,9.253,9.264,9.264,0,0,0-9.253-9.253Zm8.562,9.252a8.562,8.562,0,1,1-8.562-8.562A8.571,8.571,0,0,1,158.866,80.34Z" transform="translate(0)" fill="#fff" stroke="#fff" stroke-width="0.5"/>
    <path id="Path_52" data-name="Path 52" d="M296.515,202.346l-6.327-3.163a.427.427,0,0,0-.625.388v6.3a.424.424,0,0,0,.421.436.471.471,0,0,0,.206-.049l6.325-3.165a.407.407,0,0,0,0-.745Zm-.8.373-5.458,2.729v-5.458Z" transform="translate(-141.935 -122.379)" fill="#fff" stroke="#fff" stroke-width="0.5"/>
  </g>
</svg>
