<svg xmlns="http://www.w3.org/2000/svg" width="19.396" height="15.363" viewBox="0 0 19.396 15.363">
  <g id="Group_1250" data-name="Group 1250" transform="translate(18640.514 -2862.792)">
    <path id="Path_315" data-name="Path 315" d="M254.983,204.932c-.108.108-.077.2.076.2h10.3a5.729,5.729,0,0,1,0,11.457h-5.18a.818.818,0,1,1,0-1.637h5.18a4.092,4.092,0,0,0,0-8.184h-10.3c-.15,0-.188.084-.076.2l1.953,1.953a.818.818,0,0,1-1.156,1.159l-3.55-3.55a.817.817,0,0,1,0-1.154l3.55-3.55a.818.818,0,0,1,1.156,1.159Z" transform="translate(-18892.355 2661.419)" fill="#fff" stroke="#fff" stroke-width="0.3"/>
  </g>
</svg>
