<svg xmlns="http://www.w3.org/2000/svg" width="9.14" height="9.14" viewBox="0 0 9.14 9.14">
  <g id="Group_1388" data-name="Group 1388" transform="translate(0.2 0.2)">
    <path id="noun-settings-1926357" d="M120.622,47.1l-.28.965-.221.071a2.975,2.975,0,0,0-.464.2l-.21.109-.206-.116-.679-.381-.6.595.494.885-.108.209a3.047,3.047,0,0,0-.188.465l-.072.222-.224.064-.754.215v.849l.972.28.071.222a3,3,0,0,0,.195.464l.108.208-.113.2-.378.684.6.593.884-.5.209.109a2.979,2.979,0,0,0,.464.2l.221.071.065.223.217.749h.839l.282-.972.221-.071a2.981,2.981,0,0,0,.464-.2l.209-.109.206.116.678.381.6-.593-.491-.888.108-.208a3,3,0,0,0,.195-.465l.071-.222.224-.064.748-.215v-.849L124,50.328l-.072-.222a3.054,3.054,0,0,0-.188-.465l-.108-.209.114-.205.379-.68-.6-.595-.884.5-.209-.109a2.968,2.968,0,0,0-.464-.2l-.221-.071-.065-.223-.215-.741Zm.422,2.913a1.02,1.02,0,1,0,1.02,1.02A1.023,1.023,0,0,0,121.044,50.015Zm1.457,1.02a1.457,1.457,0,1,1-1.457-1.457A1.46,1.46,0,0,1,122.5,51.035Zm-2.039-4.37h1.164a.236.236,0,0,1,.216.165l.259.891a3.44,3.44,0,0,1,.532.23l.819-.46a.237.237,0,0,1,.273.043l.819.812a.237.237,0,0,1,.036.28l-.453.812a3.5,3.5,0,0,1,.216.532l.906.259a.238.238,0,0,1,.165.223V51.61a.237.237,0,0,1-.165.223l-.9.259a3.439,3.439,0,0,1-.223.532l.453.819a.237.237,0,0,1-.036.273l-.819.812a.237.237,0,0,1-.273.043l-.819-.46a3.435,3.435,0,0,1-.532.23l-.259.891a.237.237,0,0,1-.216.173h-1.164a.237.237,0,0,1-.216-.173l-.259-.891a3.434,3.434,0,0,1-.532-.23l-.819.46a.237.237,0,0,1-.273-.043l-.819-.812a.237.237,0,0,1-.036-.273l.453-.819a3.441,3.441,0,0,1-.223-.532l-.9-.259a.238.238,0,0,1-.165-.223V50.453a.237.237,0,0,1,.165-.223l.906-.259a3.493,3.493,0,0,1,.216-.532l-.453-.812a.237.237,0,0,1,.036-.28l.819-.812a.237.237,0,0,1,.273-.043l.819.46a3.439,3.439,0,0,1,.532-.23l.259-.891A.226.226,0,0,1,120.461,46.665Z" transform="translate(-116.674 -46.665)" fill="#fff" stroke="#fff" stroke-width="0.4"/>
  </g>
</svg>
