<svg xmlns="http://www.w3.org/2000/svg" width="9.181" height="9.03" viewBox="0 0 9.181 9.03">
  <g id="noun-calendar-4547767" transform="translate(-122.398 -52.401)">
    <path id="Path_406" data-name="Path 406" d="M129.637,53.447v-.6a.338.338,0,0,0-.173-.294.351.351,0,0,0-.345,0,.338.338,0,0,0-.173.294v.566h-3.915v-.566a.338.338,0,0,0-.173-.294.351.351,0,0,0-.345,0,.338.338,0,0,0-.173.294v.6a2.193,2.193,0,0,0-1.317.723,2.123,2.123,0,0,0-.525,1.39v3.621a2.131,2.131,0,0,0,.641,1.52,2.208,2.208,0,0,0,1.547.63h4.606a2.208,2.208,0,0,0,1.547-.63,2.131,2.131,0,0,0,.641-1.52V55.56a2.123,2.123,0,0,0-.525-1.39A2.193,2.193,0,0,0,129.637,53.447Zm-4.951.643h4.606a1.513,1.513,0,0,1,.925.319,1.468,1.468,0,0,1,.526.813h-7.508a1.468,1.468,0,0,1,.526-.813A1.513,1.513,0,0,1,124.686,54.089Zm4.606,6.562h-4.606a1.515,1.515,0,0,1-1.057-.432,1.463,1.463,0,0,1-.44-1.039V55.9h7.6v3.281a1.463,1.463,0,0,1-.44,1.039,1.515,1.515,0,0,1-1.057.432Z" transform="translate(0)" fill="#fff" stroke="#fff" stroke-width="0.2"/>
    <path id="Path_407" data-name="Path 407" d="M321.627,332.5h-.453a.339.339,0,0,0,0,.679h.453a.339.339,0,0,0,0-.679Z" transform="translate(-194.412 -274.564)" fill="#fff" stroke="#fff" stroke-width="0.2"/>
    <path id="Path_408" data-name="Path 408" d="M426.627,332.5h-.453a.339.339,0,0,0,0,.679h.453a.339.339,0,0,0,0-.679Z" transform="translate(-297.334 -274.564)" fill="#fff" stroke="#fff" stroke-width="0.2"/>
    <path id="Path_409" data-name="Path 409" d="M216.627,332.5h-.453a.339.339,0,0,0,0,.679h.453a.339.339,0,0,0,0-.679Z" transform="translate(-91.49 -274.564)" fill="#fff" stroke="#fff" stroke-width="0.2"/>
  </g>
</svg>
