<svg xmlns="http://www.w3.org/2000/svg" width="18.887" height="18.9" viewBox="0 0 18.887 18.9">
  <g id="noun-send-4705669" transform="translate(241.502 -143.459)">
    <path id="Path_61" data-name="Path 61" d="M106.214,17.643a.63.63,0,0,0-.68-.139L87.9,24.434a.641.641,0,0,0-.038,1.172l7.062,3.351L98.271,36a.617.617,0,0,0,1.134-.038l6.929-17.638a.63.63,0,0,0-.12-.68Zm-7.433,16.5L96.148,28.6l.63-.63h0a.632.632,0,0,0-.894-.894l-.63.63L89.71,25.076l13.474-5.3L98.39,24.572a.633.633,0,1,0,.895.895l4.794-4.794Z" transform="translate(-329 126)" fill="#720f78"/>
    <path id="Path_62" data-name="Path 62" d="M351.26,245.63a.63.63,0,1,1-.63-.63.63.63,0,0,1,.63.63" transform="translate(-582.053 -93.351)" fill="#720f78"/>
  </g>
</svg>
