<svg id="settings" xmlns="http://www.w3.org/2000/svg" width="45" height="45" viewBox="0 0 45 45">
  <g id="Ellipse_3" data-name="Ellipse 3" fill="none" stroke="#720f78" stroke-width="1">
    <circle cx="22.5" cy="22.5" r="22.5" stroke="none"/>
    <circle cx="22.5" cy="22.5" r="22" fill="none"/>
  </g>
  <path id="noun-settings-1926357" d="M124.805,47.565l-.577,1.987-.456.146a6.129,6.129,0,0,0-.956.415l-.432.224-.424-.238-1.4-.785-1.236,1.225,1.017,1.824-.223.43a6.282,6.282,0,0,0-.387.958l-.148.456-.461.132-1.553.444v1.749l2,.576.147.457a6.187,6.187,0,0,0,.4.956l.222.428-.233.422-.778,1.408L120.564,62l1.821-1.023.431.224a6.138,6.138,0,0,0,.956.416l.456.146.133.46.447,1.542h1.728l.581-2,.456-.146a6.139,6.139,0,0,0,.956-.416l.431-.224.424.238,1.4.785,1.232-1.221L131,58.95l.222-.428a6.181,6.181,0,0,0,.4-.957l.147-.457.461-.133,1.54-.443V54.783l-2.014-.575-.148-.456a6.287,6.287,0,0,0-.387-.958l-.223-.43.236-.423.781-1.4-1.236-1.225-1.821,1.023-.431-.224a6.111,6.111,0,0,0-.956-.416l-.456-.146-.133-.46-.443-1.527Zm.868,6a2.1,2.1,0,1,0,2.1,2.1A2.107,2.107,0,0,0,125.673,53.565Zm3,2.1a3,3,0,1,1-3-3A3.006,3.006,0,0,1,128.673,55.665Zm-4.2-9h2.4a.487.487,0,0,1,.444.34l.533,1.835a7.086,7.086,0,0,1,1.1.474l1.687-.947a.488.488,0,0,1,.563.089l1.688,1.673a.488.488,0,0,1,.074.577l-.933,1.673a7.212,7.212,0,0,1,.444,1.1l1.865.533a.49.49,0,0,1,.34.459v2.383a.487.487,0,0,1-.34.459l-1.85.533a7.086,7.086,0,0,1-.459,1.1l.933,1.688a.487.487,0,0,1-.074.562l-1.687,1.673a.488.488,0,0,1-.563.089L128.945,62a7.075,7.075,0,0,1-1.1.474l-.533,1.835a.487.487,0,0,1-.444.355h-2.4a.487.487,0,0,1-.444-.355l-.533-1.835A7.075,7.075,0,0,1,122.4,62l-1.688.947a.487.487,0,0,1-.562-.089l-1.687-1.673a.487.487,0,0,1-.074-.562l.933-1.688a7.084,7.084,0,0,1-.459-1.1l-1.85-.533a.49.49,0,0,1-.341-.459V54.466a.488.488,0,0,1,.341-.459l1.865-.533a7.191,7.191,0,0,1,.444-1.1l-.933-1.673a.488.488,0,0,1,.074-.577l1.688-1.673a.487.487,0,0,1,.562-.089l1.688.947a7.084,7.084,0,0,1,1.1-.474l.533-1.835A.465.465,0,0,1,124.474,46.665Z" transform="translate(-103.173 -33.165)" fill="#720f78" stroke="#720f78" stroke-width="0.2"/>
</svg>
