<svg id="settings" xmlns="http://www.w3.org/2000/svg" width="45" height="45" viewBox="0 0 45 45">
  <g id="Path_47" data-name="Path 47" fill="#720f78">
    <path d="M 22.5 44.5 C 19.52980041503906 44.5 16.64871025085449 43.91838836669922 13.93675994873047 42.77133941650391 C 11.31707000732422 41.66329956054688 8.964249610900879 40.07695007324219 6.943649768829346 38.05635070800781 C 4.923049926757812 36.03575134277344 3.336699962615967 33.68292999267578 2.228660106658936 31.06324005126953 C 1.081609964370728 28.35128974914551 0.5 25.47019958496094 0.5 22.5 C 0.5 19.52980041503906 1.081609964370728 16.64871025085449 2.228660106658936 13.93675994873047 C 3.336699962615967 11.31707000732422 4.923049926757812 8.964249610900879 6.943649768829346 6.943649768829346 C 8.964249610900879 4.923049926757812 11.31707000732422 3.336699962615967 13.93675994873047 2.228660106658936 C 16.64871025085449 1.081609964370728 19.52980041503906 0.5 22.5 0.5 C 25.47019958496094 0.5 28.35128974914551 1.081609964370728 31.06324005126953 2.228660106658936 C 33.68292999267578 3.336699962615967 36.03575134277344 4.923049926757812 38.05635070800781 6.943649768829346 C 40.07695007324219 8.964249610900879 41.66329956054688 11.31707000732422 42.77133941650391 13.93675994873047 C 43.91838836669922 16.64871025085449 44.5 19.52980041503906 44.5 22.5 C 44.5 25.47019958496094 43.91838836669922 28.35128974914551 42.77133941650391 31.06324005126953 C 41.66329956054688 33.68292999267578 40.07695007324219 36.03575134277344 38.05635070800781 38.05635070800781 C 36.03575134277344 40.07695007324219 33.68292999267578 41.66329956054688 31.06324005126953 42.77133941650391 C 28.35128974914551 43.91838836669922 25.47019958496094 44.5 22.5 44.5 Z" stroke="none"/>
    <path d="M 22.5 1 C 19.59708023071289 1 16.78152084350586 1.568321228027344 14.13154029846191 2.689170837402344 C 11.57144927978516 3.771991729736328 9.272048950195312 5.322360992431641 7.297199249267578 7.297199249267578 C 5.322360992431641 9.272048950195312 3.771991729736328 11.57144927978516 2.689170837402344 14.13154029846191 C 1.568321228027344 16.78152084350586 1 19.59708023071289 1 22.5 C 1 25.40291976928711 1.568321228027344 28.21847915649414 2.689170837402344 30.86845970153809 C 3.771991729736328 33.42855072021484 5.322360992431641 35.72795104980469 7.297199249267578 37.70280075073242 C 9.272048950195312 39.67763900756836 11.57144927978516 41.22800827026367 14.13154029846191 42.31082916259766 C 16.78152084350586 43.43167877197266 19.59708023071289 44 22.5 44 C 25.40291976928711 44 28.21847915649414 43.43167877197266 30.86845970153809 42.31082916259766 C 33.42855072021484 41.22800827026367 35.72795104980469 39.67763900756836 37.70280075073242 37.70280075073242 C 39.67763900756836 35.72795104980469 41.22800827026367 33.42855072021484 42.31082916259766 30.86845970153809 C 43.43167877197266 28.21847915649414 44 25.40291976928711 44 22.5 C 44 19.59708023071289 43.43167877197266 16.78152084350586 42.31082916259766 14.13154029846191 C 41.22800827026367 11.57144927978516 39.67763900756836 9.272048950195312 37.70280075073242 7.297199249267578 C 35.72795104980469 5.322360992431641 33.42855072021484 3.771991729736328 30.86845970153809 2.689170837402344 C 28.21847915649414 1.568321228027344 25.40291976928711 1 22.5 1 M 22.5 0 C 34.92641067504883 0 45 10.07358932495117 45 22.5 C 45 34.92641067504883 34.92641067504883 45 22.5 45 C 10.07358932495117 45 0 34.92641067504883 0 22.5 C 0 10.07358932495117 10.07358932495117 0 22.5 0 Z" stroke="none" fill="#fff"/>
  </g>
  <path id="noun-settings-1926357" d="M124.805,47.565l-.577,1.987-.456.146a6.129,6.129,0,0,0-.956.415l-.432.224-.424-.238-1.4-.785-1.236,1.225,1.017,1.824-.223.43a6.282,6.282,0,0,0-.387.958l-.148.456-.461.132-1.553.444v1.749l2,.576.147.457a6.187,6.187,0,0,0,.4.956l.222.428-.233.422-.778,1.408L120.564,62l1.821-1.023.431.224a6.138,6.138,0,0,0,.956.416l.456.146.133.46.447,1.542h1.728l.581-2,.456-.146a6.139,6.139,0,0,0,.956-.416l.431-.224.424.238,1.4.785,1.232-1.221L131,58.95l.222-.428a6.181,6.181,0,0,0,.4-.957l.147-.457.461-.133,1.54-.443V54.783l-2.014-.575-.148-.456a6.287,6.287,0,0,0-.387-.958l-.223-.43.236-.423.781-1.4-1.236-1.225-1.821,1.023-.431-.224a6.111,6.111,0,0,0-.956-.416l-.456-.146-.133-.46-.443-1.527Zm.868,6a2.1,2.1,0,1,0,2.1,2.1A2.107,2.107,0,0,0,125.673,53.565Zm3,2.1a3,3,0,1,1-3-3A3.006,3.006,0,0,1,128.673,55.665Zm-4.2-9h2.4a.487.487,0,0,1,.444.34l.533,1.835a7.086,7.086,0,0,1,1.1.474l1.687-.947a.488.488,0,0,1,.563.089l1.688,1.673a.488.488,0,0,1,.074.577l-.933,1.673a7.212,7.212,0,0,1,.444,1.1l1.865.533a.49.49,0,0,1,.34.459v2.383a.487.487,0,0,1-.34.459l-1.85.533a7.086,7.086,0,0,1-.459,1.1l.933,1.688a.487.487,0,0,1-.074.562l-1.687,1.673a.488.488,0,0,1-.563.089L128.945,62a7.075,7.075,0,0,1-1.1.474l-.533,1.835a.487.487,0,0,1-.444.355h-2.4a.487.487,0,0,1-.444-.355l-.533-1.835A7.075,7.075,0,0,1,122.4,62l-1.688.947a.487.487,0,0,1-.562-.089l-1.687-1.673a.487.487,0,0,1-.074-.562l.933-1.688a7.084,7.084,0,0,1-.459-1.1l-1.85-.533a.49.49,0,0,1-.341-.459V54.466a.488.488,0,0,1,.341-.459l1.865-.533a7.191,7.191,0,0,1,.444-1.1l-.933-1.673a.488.488,0,0,1,.074-.577l1.688-1.673a.487.487,0,0,1,.562-.089l1.688.947a7.084,7.084,0,0,1,1.1-.474l.533-1.835A.465.465,0,0,1,124.474,46.665Z" transform="translate(-103.173 -33.165)" fill="#fff" stroke="#fff" stroke-width="0.2"/>
</svg>
