<svg xmlns="http://www.w3.org/2000/svg" width="15.197" height="16.756" viewBox="0 0 15.197 16.756">
  <g id="Group_2111" data-name="Group 2111" transform="translate(395.48 23157.336) rotate(90)">
    <path id="Union_1" data-name="Union 1" d="M-23826.7-1227.058a.372.372,0,0,1,0-.522c.158-.165.32-.331.48-.493q1.061-1.083,2.121-2.163c.238-.241.473-.483.711-.725h-7.381a.374.374,0,0,1-.365-.369.373.373,0,0,1,.365-.369h.012c.334-.01.668,0,1,0h6.367l-3.312-3.378a.383.383,0,0,1,0-.525.361.361,0,0,1,.512,0c.16.165.32.331.484.493.7.722,1.412,1.441,2.117,2.163.441.452.887.9,1.328,1.355a.355.355,0,0,1,.1.218.313.313,0,0,1,.006.043.35.35,0,0,1-.08.232.155.155,0,0,1-.027.029c-.158.165-.32.331-.48.493q-1.061,1.083-2.121,2.163c-.441.452-.887.9-1.328,1.355a.347.347,0,0,1-.25.1A.385.385,0,0,1-23826.7-1227.058Zm6.926-6.014c-.162-.166-.324-.328-.486-.493q-1.058-1.083-2.119-2.16c-.441-.452-.887-.9-1.328-1.358a.353.353,0,0,1-.1-.219.149.149,0,0,1,0-.042.328.328,0,0,1,.066-.213.3.3,0,0,1,.039-.048l3.934-4.007a.361.361,0,0,1,.512,0,.381.381,0,0,1,0,.522c-.164.162-.324.328-.484.493q-1.061,1.078-2.121,2.16-.354.362-.711.725h7.441a.372.372,0,0,1,.361.369.366.366,0,0,1-.361.369h-.016c-.334.01-.672,0-1.008,0h-6.418l1.984,2.023q.665.682,1.332,1.358h0a.373.373,0,0,1,0,.522.32.32,0,0,1-.246.107A.363.363,0,0,1-23819.777-1233.073Z" transform="translate(674 1622.233)" fill="#720f78" stroke="#720f78" stroke-width="0.4"/>
  </g>
</svg>
