<svg xmlns="http://www.w3.org/2000/svg" width="19.5" height="14.401" viewBox="0 0 19.5 14.401">
  <path id="Path_605" data-name="Path 605" d="M222.467,192.848l1.175,1.175,2.725-3.35a.744.744,0,1,1,1.154.939l-3.245,3.989a.744.744,0,0,1-1.1.057l-1.758-1.758a.744.744,0,0,1,1.052-1.052Zm0,8.924,1.175,1.175,2.725-3.35a.744.744,0,1,1,1.154.938l-3.245,3.989a.744.744,0,0,1-1.1.057l-1.758-1.758a.744.744,0,0,1,1.052-1.052Zm8.456,1.641a.744.744,0,0,1,0-1.487h9.03a.744.744,0,1,1,0,1.487Zm0-8.924a.744.744,0,0,1,0-1.487h9.03a.744.744,0,1,1,0,1.487Z" transform="translate(-221.197 -190.399)" fill="#a3a3a3"/>
</svg>
