<svg xmlns="http://www.w3.org/2000/svg" width="20.848" height="11.492" viewBox="0 0 20.848 11.492">
  <g id="Group_1019" data-name="Group 1019" transform="translate(-5535.881 391.374)">
    <path id="Path_208" data-name="Path 208" d="M113.836,145.6a12.48,12.48,0,0,0-10.172,5.319.466.466,0,0,0,0,.546,12.376,12.376,0,0,0,20.344,0,.466.466,0,0,0,0-.546A12.48,12.48,0,0,0,113.836,145.6Zm0,.933a11.51,11.51,0,0,1,9.2,4.663,11.4,11.4,0,0,1-18.391,0A11.51,11.51,0,0,1,113.836,146.533Zm0,1.4A3.264,3.264,0,1,0,117.1,151.2,3.271,3.271,0,0,0,113.836,147.932Zm0,.933A2.332,2.332,0,1,1,111.5,151.2,2.325,2.325,0,0,1,113.836,148.864Z" transform="translate(5432.469 -536.824)" fill="#fff" stroke="#fff" stroke-width="0.3"/>
  </g>
</svg>
