<svg xmlns="http://www.w3.org/2000/svg" width="11.116" height="15.253" viewBox="0 0 11.116 15.253">
  <g id="Group_1618" data-name="Group 1618" transform="translate(10442.191 -10284.7)">
    <path id="Path_364" data-name="Path 364" d="M233.312,114.28h.348a.429.429,0,0,1,.356.74l-2.207,2.758a.588.588,0,0,1-.943,0l-2.207-2.758a.429.429,0,0,1,.356-.74h.348a.233.233,0,0,0,.233-.233V109.17a.7.7,0,0,1,.7-.7h2.089a.7.7,0,0,1,.7.7v4.876a.232.232,0,0,0,.233.233Zm0,.465a.7.7,0,0,1-.7-.7V109.17a.233.233,0,0,0-.233-.233h-2.089a.232.232,0,0,0-.233.233v4.876a.7.7,0,0,1-.7.7h-.329l2.2,2.744a.126.126,0,0,0,.218,0l2.2-2.744Zm-8.827-7.646h-.348a.429.429,0,0,1-.356-.74l2.207-2.758a.588.588,0,0,1,.944,0l2.207,2.758a.429.429,0,0,1-.356.74h-.348a.233.233,0,0,0-.233.233v4.876a.7.7,0,0,1-.7.7h-2.089a.7.7,0,0,1-.7-.7v-4.876a.232.232,0,0,0-.233-.233Zm0-.465a.7.7,0,0,1,.7.7v4.876a.233.233,0,0,0,.233.233H227.5a.232.232,0,0,0,.233-.233v-4.876a.7.7,0,0,1,.7-.7h.329l-2.2-2.744a.126.126,0,0,0-.218,0l-2.2,2.744Z" transform="translate(-10665.531 10181.638)" fill="#720f78" stroke="#720f78" stroke-width="0.6"/>
  </g>
</svg>
