<svg xmlns="http://www.w3.org/2000/svg" width="15.337" height="16.213" viewBox="0 0 15.337 16.213">
  <g id="Group_874" data-name="Group 874" transform="translate(693.966 -1138.887)">
    <path id="Path_240" data-name="Path 240" d="M167.782,185.784a.272.272,0,0,0,.112-.022l1.878-.7a.321.321,0,0,0-.224-.6l-1.878.7a.321.321,0,0,0,.112.621Z" transform="translate(-861.328 958.599)" fill="#a3a3a3" stroke="#a3a3a3" stroke-width="0.2"/>
    <path id="Path_241" data-name="Path 241" d="M452.862,258.175a.322.322,0,0,0,.109-.442l-.666-1.113a.32.32,0,0,0-.55.326l.669,1.117a.321.321,0,0,0,.275.157.34.34,0,0,0,.163-.045Z" transform="translate(-1133.791 889.562)" fill="#a3a3a3" stroke="#a3a3a3" stroke-width="0.2"/>
    <path id="Path_242" data-name="Path 242" d="M268.449,104.817a.315.315,0,0,0-.422.16l-.538,1.181a.321.321,0,0,0,.157.426.334.334,0,0,0,.131.029.322.322,0,0,0,.294-.189l.538-1.184a.32.32,0,0,0-.16-.422Z" transform="translate(-957.179 1034.948)" fill="#a3a3a3" stroke="#a3a3a3" stroke-width="0.2"/>
    <path id="Path_243" data-name="Path 243" d="M466.2,186.059l1.113-.666a.323.323,0,0,0,.112-.442.319.319,0,0,0-.438-.109l-1.117.666a.319.319,0,0,0-.109.438.32.32,0,0,0,.438.112Z" transform="translate(-1147.215 958.256)" fill="#a3a3a3" stroke="#a3a3a3" stroke-width="0.2"/>
    <path id="Path_244" data-name="Path 244" d="M191.809,143.641a.325.325,0,0,0,.16.426l.912.413a.335.335,0,0,0,.131.029.314.314,0,0,0,.291-.186.321.321,0,0,0-.157-.426l-.912-.413a.321.321,0,0,0-.425.157Z" transform="translate(-884.639 997.884)" fill="#a3a3a3" stroke="#a3a3a3" stroke-width="0.2"/>
    <path id="Path_245" data-name="Path 245" d="M398.345,166.311a.32.32,0,0,0-.55.326l.515.861a.314.314,0,0,0,.275.157.339.339,0,0,0,.163-.045.319.319,0,0,0,.109-.438Z" transform="translate(-1082.068 976.126)" fill="#a3a3a3" stroke="#a3a3a3" stroke-width="0.2"/>
    <path id="Path_246" data-name="Path 246" d="M227.127,208.316a.271.271,0,0,0,.131.029.318.318,0,0,0,.291-.186l.288-.634a.32.32,0,1,0-.582-.266l-.288.633a.316.316,0,0,0,.16.422Z" transform="translate(-918.338 936.905)" fill="#a3a3a3" stroke="#a3a3a3" stroke-width="0.2"/>
    <path id="Path_247" data-name="Path 247" d="M344.8,200.214a.317.317,0,0,0,.23.387l1.942.49a.358.358,0,0,0,.08.01.32.32,0,0,0,.077-.63l-1.942-.49A.319.319,0,0,0,344.8,200.214Z" transform="translate(-1031.306 943.711)" fill="#a3a3a3" stroke="#a3a3a3" stroke-width="0.2"/>
    <path id="Path_248" data-name="Path 248" d="M220.1,87.235a.321.321,0,0,0-.413-.189.317.317,0,0,0-.186.413l.7,1.875a.324.324,0,0,0,.3.208.331.331,0,0,0,.112-.019.322.322,0,0,0,.189-.413Z" transform="translate(-911.185 1051.974)" fill="#a3a3a3" stroke="#a3a3a3" stroke-width="0.2"/>
    <path id="Path_249" data-name="Path 249" d="M290.681,139.072l-1.875.7a.321.321,0,0,0-.189.413.318.318,0,0,0,.3.2.344.344,0,0,0,.112-.019l1.875-.7a.319.319,0,1,0-.224-.6Z" transform="translate(-977.44 1002.105)" fill="#a3a3a3" stroke="#a3a3a3" stroke-width="0.2"/>
    <path id="Path_250" data-name="Path 250" d="M373.957,230.523l-2.371,9.42a.321.321,0,0,0,.23.39.338.338,0,0,0,.08.01.32.32,0,0,0,.307-.243l2.374-9.42a.32.32,0,0,0-.621-.157Z" transform="translate(-1056.979 914.657)" fill="#a3a3a3" stroke="#a3a3a3" stroke-width="0.2"/>
    <path id="Path_251" data-name="Path 251" d="M287.977,187.017a.32.32,0,1,0-.266.582l1.184.538a.313.313,0,0,0,.131.029.323.323,0,0,0,.291-.186.32.32,0,0,0-.16-.426Z" transform="translate(-976.41 956.156)" fill="#a3a3a3" stroke="#a3a3a3" stroke-width="0.2"/>
    <path id="Path_252" data-name="Path 252" d="M253.989,178.51a.323.323,0,0,0-.186.413l3.408,9.1a.324.324,0,0,0,.3.208.269.269,0,0,0,.112-.022.319.319,0,0,0,.189-.41l-3.411-9.1A.321.321,0,0,0,253.989,178.51Z" transform="translate(-944.07 964.302)" fill="#a3a3a3" stroke="#a3a3a3" stroke-width="0.2"/>
    <path id="Path_253" data-name="Path 253" d="M470.608,231.6a.318.318,0,0,0-.387.23.321.321,0,0,0,.23.39l1.946.49a.312.312,0,0,0,.077.01.321.321,0,0,0,.31-.243.316.316,0,0,0-.233-.387Z" transform="translate(-1151.525 913.403)" fill="#a3a3a3" stroke="#a3a3a3" stroke-width="0.2"/>
    <path id="Path_254" data-name="Path 254" d="M382.22,243.441l.6-.355a.325.325,0,0,0,.109-.442.321.321,0,0,0-.438-.109l-.6.358a.319.319,0,0,0,.166.592A.306.306,0,0,0,382.22,243.441Z" transform="translate(-1066.717 902.955)" fill="#a3a3a3" stroke="#a3a3a3" stroke-width="0.2"/>
    <path id="Path_255" data-name="Path 255" d="M441.724,135.536a.32.32,0,0,0-.387.234l-.49,1.942a.32.32,0,0,0,.621.157l.49-1.942A.323.323,0,0,0,441.724,135.536Z" transform="translate(-1123.37 1005.484)" fill="#a3a3a3" stroke="#a3a3a3" stroke-width="0.2"/>
  </g>
</svg>
