<svg xmlns="http://www.w3.org/2000/svg" width="8.697" height="8.281" viewBox="0 0 8.697 8.281">
  <g id="noun-star-4890701" transform="translate(-107.166 -37.374)">
    <path id="Path_459" data-name="Path 459" d="M200.826,133.137a.464.464,0,0,0-.375-.316l-2.325-.338-1.04-2.106a.483.483,0,0,0-.833,0l-1.04,2.106-2.325.338a.464.464,0,0,0-.258.792l1.683,1.64-.4,2.316a.464.464,0,0,0,.674.489l2.079-1.093,2.079,1.093a.464.464,0,0,0,.674-.489l-.4-2.316,1.683-1.64a.465.465,0,0,0,.117-.476Zm-2.623,1.621a.464.464,0,0,0-.133.411l.279,1.629-1.463-.769a.464.464,0,0,0-.433,0l-1.463.769.279-1.629a.464.464,0,0,0-.133-.411l-1.183-1.153,1.635-.238a.464.464,0,0,0,.35-.254l.731-1.482.731,1.482a.464.464,0,0,0,.35.254l1.635.238Z" transform="translate(-85.17 -92.614)" fill="#fff" stroke="#720f78" stroke-width="0.3"/>
  </g>
</svg>
