<svg xmlns="http://www.w3.org/2000/svg" width="15.4" height="14.154" viewBox="0 0 15.4 14.154">
  <g id="time_icon" data-name="time icon" transform="translate(-105.706 -74.793)">
    <g id="Group_2093" data-name="Group 2093" transform="translate(-15 5)">
      <path id="Path_75" data-name="Path 75" d="M226.8,72.011a6.959,6.959,0,0,0-9.794,0,.415.415,0,0,0,0,.589.422.422,0,0,0,.593,0,6.11,6.11,0,0,1,9.364.915,6,6,0,0,1,0,6.713,6.114,6.114,0,0,1-9.364.915.422.422,0,0,0-.593,0,.414.414,0,0,0,0,.589,6.961,6.961,0,0,0,9.794,0,6.839,6.839,0,0,0,0-9.722Z" transform="translate(-92.918 0)" fill="#720f78" stroke="#720f78" stroke-width="0.4"/>
      <path id="Path_76" data-name="Path 76" d="M356.768,128.02a.405.405,0,0,0-.405.405v4.432a.405.405,0,0,0,.119.286l2.216,2.216h0a.405.405,0,1,0,.573-.573l-2.1-2.1v-4.265a.4.4,0,0,0-.405-.405Z" transform="translate(-227.693 -56.175)" fill="#720f78" stroke="#720f78" stroke-width="0.4"/>
      <path id="Path_77" data-name="Path 77" d="M126.173,267.678a.405.405,0,0,0-.405-.405h-4.456a.405.405,0,0,0,0,.81h4.456a.4.4,0,0,0,.405-.405Z" transform="translate(0 -190.806)" fill="#720f78" stroke="#720f78" stroke-width="0.4"/>
      <path id="Path_78" data-name="Path 78" d="M172.225,191.716h2.836a.405.405,0,1,0,0-.81h-2.836a.405.405,0,1,0,0,.81Z" transform="translate(-49.293 -116.943)" fill="#720f78" stroke="#720f78" stroke-width="0.4"/>
      <path id="Path_79" data-name="Path 79" d="M175.459,344.038a.4.4,0,0,0-.405-.405h-2.836a.405.405,0,1,0,0,.81h2.836a.405.405,0,0,0,.405-.405Z" transform="translate(-49.287 -264.662)" fill="#720f78" stroke="#720f78" stroke-width="0.4"/>
    </g>
  </g>
</svg>
