<svg xmlns="http://www.w3.org/2000/svg" xmlns:xlink="http://www.w3.org/1999/xlink" width="268.07" height="33.022" viewBox="0 0 268.07 33.022">
  <defs>
    <clipPath id="clip-path">
      <path id="Path_1" data-name="Path 1" d="M31.784,0,24.349,21.478h-.132L21.719,0h-5.13L7.676,21.478l-.132-.023L6.543,0H0L2.653,31.651H8.544L17.5,10.8l.109.021,2.7,20.826H26.2L38.327,0ZM41.7,0,36.957,31.651h6.349L45.262,18.5H57.436l.738-4.893H46l1.3-8.718H61.7L62.415,0ZM91.09,0,79.459,23.35l-.133-.024L74.784,0H66.457L61.72,31.651h6.347L71.306,10h.13l4.588,21.653h4.3L91.392,10.043l.111.021L88.285,31.651h6.347L99.371,0Z" fill="#fff"/>
    </clipPath>
    <clipPath id="clip-path-2">
      <rect id="Rectangle_5" data-name="Rectangle 5" width="133.119" height="32.049" fill="#fff"/>
    </clipPath>
  </defs>
  <g id="logo" transform="translate(-35.5 -41.739)">
    <g id="Group_5" data-name="Group 5" transform="translate(204.2 41.926)">
      <g id="Group_4" data-name="Group 4" transform="translate(0 0)">
        <g id="Group_3" data-name="Group 3" clip-path="url(#clip-path)">
          <rect id="Rectangle_2" data-name="Rectangle 2" width="99.371" height="31.651" transform="translate(0 0)" fill="#fff"/>
        </g>
      </g>
    </g>
    <g id="Group_8" data-name="Group 8" transform="translate(35.5 41.739)">
      <g id="Group_7" data-name="Group 7" transform="translate(0 0)">
        <path id="Path_2" data-name="Path 2" d="M0,.1V31.749H27.567V8.206H9.079V23.121H19.771v-4.88H14.158V13.087H22.49V26.869H5.076V4.98H31.318V31.749h5.076V.1Z" transform="translate(0 0.1)" fill="#fff"/>
        <rect id="Rectangle_4" data-name="Rectangle 4" width="8.392" height="31.645" transform="translate(43.025 0.202)" fill="#fff"/>
        <g id="Group_6" data-name="Group 6" transform="translate(0 0)">
          <g id="Group_5-2" data-name="Group 5" clip-path="url(#clip-path-2)">
            <path id="Path_3" data-name="Path 3" d="M27.851,6.543q0-4.393,1.546-5.479a6.532,6.532,0,0,1,2.666-.8A38.384,38.384,0,0,1,37.1,0q6.3,0,7.819,1.143t1.525,5.4v6.9H38.33V6.739a1.981,1.981,0,0,0-.278-1.226,1.314,1.314,0,0,0-1.044-.333,1.073,1.073,0,0,0-.807.286,2.37,2.37,0,0,0-.232,1.274v18.5a2.212,2.212,0,0,0,.257,1.236,1.129,1.129,0,0,0,.922.362,1.243,1.243,0,0,0,.868-.286.974.974,0,0,0,.314-.76V18.382h8.116v7.054q0,4.333-1.569,5.475t-7.73,1.139q-6.227,0-7.762-1.148t-1.535-5.469Z" transform="translate(25.186 0)" fill="#fff" fill-rule="evenodd"/>
            <path id="Path_4" data-name="Path 4" d="M49.18,11.25V6.914q0-1.177-.326-1.445A2.231,2.231,0,0,0,47.536,5.2H46.82v8.1l.392.04h.369a2.2,2.2,0,0,0,1.263-.257,1.178,1.178,0,0,0,.335-.979ZM38.7,31.763V.1h9.24q5.99,0,7.672,1.131T57.3,6.641v3.27q-.006,3.4-.813,4.574A5.31,5.31,0,0,1,53.512,16.3a4.922,4.922,0,0,1,2.925,1.642,5.882,5.882,0,0,1,.859,3.506V31.763H49.18v-10.9a1.742,1.742,0,0,0-.394-1.335,2.317,2.317,0,0,0-1.48-.343H46.82V31.763Z" transform="translate(34.998 0.092)" fill="#fff" fill-rule="evenodd"/>
            <path id="Path_5" data-name="Path 5" d="M57.669,6.739v18.5a2.145,2.145,0,0,0,.267,1.255,1.092,1.092,0,0,0,.914.343,1.418,1.418,0,0,0,.878-.248,2.124,2.124,0,0,0,.185-.257.859.859,0,0,0,.116-.467V6.739a1.981,1.981,0,0,0-.278-1.226,1.3,1.3,0,0,0-1.04-.333,1.08,1.08,0,0,0-.764.257.921.921,0,0,0-.278.71Zm-8.116-.2q0-4.413,1.569-5.479T58.8,0q6.2,0,7.773,1.152t1.569,5.391V25.432q0,4.336-1.569,5.479T58.85,32.049q-6.23,0-7.764-1.148t-1.533-5.469Z" transform="translate(44.811 0)" fill="#fff" fill-rule="evenodd"/>
            <path id="Path_6" data-name="Path 6" d="M60.141,31.763V.1H67.7l4.045,16.2V.1h6.985V31.763l-7.488-.011-4.1-15.53-.025,15.541Z" transform="translate(54.386 0.092)" fill="#fff" fill-rule="evenodd"/>
          </g>
        </g>
      </g>
    </g>
    <line id="Line_12" data-name="Line 12" y2="32.35" transform="translate(186.463 42.411)" fill="none" stroke="#fff" stroke-width="1"/>
  </g>
</svg>
