<svg id="Group_75" data-name="Group 75" xmlns="http://www.w3.org/2000/svg" xmlns:xlink="http://www.w3.org/1999/xlink" width="232.021" height="28.581" viewBox="0 0 232.021 28.581">
  <defs>
    <linearGradient id="linear-gradient" x1="0.021" y1="1" x2="1" gradientUnits="objectBoundingBox">
      <stop offset="0" stop-color="#720f78"/>
      <stop offset="1" stop-color="#e78021"/>
    </linearGradient>
    <clipPath id="clip-path">
      <path id="Path_1" data-name="Path 1" d="M27.51,0,21.075,18.59h-.114L18.8,0h-4.44L6.643,18.59l-.114-.02L5.663,0H0L2.3,27.395h5.1L15.147,9.351l.094.018,2.334,18.026h5.1L33.173,0Zm8.579,0-4.1,27.395h5.5l1.693-11.382H49.712l.639-4.235H39.815l1.129-7.546H53.4L54.022,0ZM78.84,0,68.774,20.21l-.115-.021L64.728,0H57.52l-4.1,27.395h5.494l2.8-18.741h.112L65.8,27.395h3.724L79.1,8.692l.1.018L76.412,27.395h5.494L86.007,0Z" fill="url(#linear-gradient)"/>
    </clipPath>
    <clipPath id="clip-path-2">
      <rect id="Rectangle_5" data-name="Rectangle 5" width="115.217" height="27.74" fill="#152449"/>
    </clipPath>
  </defs>
  <g id="Group_5" data-name="Group 5" transform="translate(146.013 0.161)">
    <g id="Group_4" data-name="Group 4" transform="translate(0 0)">
      <g id="Group_3" data-name="Group 3" clip-path="url(#clip-path)">
        <rect id="Rectangle_2" data-name="Rectangle 2" width="86.007" height="27.395" transform="translate(0 0)" fill="url(#linear-gradient)"/>
      </g>
    </g>
  </g>
  <g id="Group_8" data-name="Group 8" transform="translate(0 0)">
    <g id="Group_7" data-name="Group 7" transform="translate(0 0)">
      <path id="Path_2" data-name="Path 2" d="M0,.1V27.493H23.86V7.116h-16V20.026h9.254V15.8H12.254V11.34h7.212V23.269H4.394V4.324H27.107V27.493H31.5V.1Z" transform="translate(0 0.073)" fill="#152449"/>
      <rect id="Rectangle_4" data-name="Rectangle 4" width="7.264" height="27.39" transform="translate(37.239 0.175)" fill="#152449"/>
      <g id="Group_6" data-name="Group 6" transform="translate(0 0)">
        <g id="Group_5-2" data-name="Group 5" clip-path="url(#clip-path-2)">
          <path id="Path_3" data-name="Path 3" d="M27.851,5.663q0-3.8,1.338-4.742A5.654,5.654,0,0,1,31.5.229,33.222,33.222,0,0,1,35.858,0q5.454,0,6.768.989t1.32,4.678V11.64H36.921V5.833a1.715,1.715,0,0,0-.241-1.061,1.137,1.137,0,0,0-.9-.288.929.929,0,0,0-.7.247,2.051,2.051,0,0,0-.2,1.1V21.842a1.914,1.914,0,0,0,.223,1.07.977.977,0,0,0,.8.313,1.076,1.076,0,0,0,.752-.247.843.843,0,0,0,.272-.658V15.91h7.025v6.105q0,3.751-1.358,4.739t-6.69.986q-5.39,0-6.718-.994t-1.328-4.734Z" transform="translate(18.054 0)" fill="#152449" fill-rule="evenodd"/>
          <path id="Path_4" data-name="Path 4" d="M47.771,9.751V6q0-1.019-.282-1.251a1.931,1.931,0,0,0-1.141-.231h-.62v7.012l.34.035h.32a1.9,1.9,0,0,0,1.093-.223,1.019,1.019,0,0,0,.29-.847ZM38.7,27.505V.1h8q5.184,0,6.641.979T54.8,5.762v2.83a7.66,7.66,0,0,1-.7,3.959,4.6,4.6,0,0,1-2.571,1.571,4.26,4.26,0,0,1,2.532,1.421,5.091,5.091,0,0,1,.743,3.034v8.928H47.771V18.071a1.507,1.507,0,0,0-.341-1.155,2.006,2.006,0,0,0-1.281-.3h-.42V27.505Z" transform="translate(25.087 0.066)" fill="#152449" fill-rule="evenodd"/>
          <path id="Path_5" data-name="Path 5" d="M56.578,5.833V21.842a1.857,1.857,0,0,0,.231,1.086.945.945,0,0,0,.791.3,1.227,1.227,0,0,0,.76-.214,1.839,1.839,0,0,0,.16-.223.744.744,0,0,0,.1-.4V5.833a1.715,1.715,0,0,0-.241-1.061,1.129,1.129,0,0,0-.9-.288.935.935,0,0,0-.661.223.8.8,0,0,0-.241.615Zm-7.025-.17q0-3.82,1.358-4.742T57.558,0q5.37,0,6.728,1t1.358,4.666V22.012q0,3.753-1.358,4.742T57.6,27.74q-5.392,0-6.72-.994t-1.327-4.734Z" transform="translate(32.121 0)" fill="#152449" fill-rule="evenodd"/>
          <path id="Path_6" data-name="Path 6" d="M60.141,27.505V.1h6.545l3.5,14.021V.1h6.046v27.4l-6.481-.01L66.206,14.054l-.021,13.451Z" transform="translate(38.984 0.066)" fill="#152449" fill-rule="evenodd"/>
        </g>
      </g>
    </g>
  </g>
  <line id="Line_12" data-name="Line 12" y2="28" transform="translate(130.661 0.581)" fill="none" stroke="#152449" stroke-width="1"/>
</svg>
